<?xml version="1.0" encoding="iso-8859-1"?>
<!-- Uploaded to: SVG Repo, www.svgrepo.com, Generator: SVG Repo Mixer Tools -->
<!DOCTYPE svg PUBLIC "-//W3C//DTD SVG 1.1//EN" "http://www.w3.org/Graphics/SVG/1.1/DTD/svg11.dtd">
<svg fill="#000000" version="1.1" id="Capa_1" xmlns="http://www.w3.org/2000/svg" xmlns:xlink="http://www.w3.org/1999/xlink" 
	 width="800px" height="800px" viewBox="0 0 468.614 468.614"
	 xml:space="preserve">
<g>
	<path d="M398.854,24.602c-4.239-4.227-10.599-4.732-15.336-1.726l-44.916,44.931l-48.356,48.335v-0.036
		c0-0.709-0.097-1.385-0.187-2.066c9.439-11.998,15.145-27.031,15.145-43.448c0-38.911-31.67-70.592-70.59-70.592
		c-38.929,0-70.589,31.681-70.589,70.592c0,16.393,5.695,31.414,15.084,43.415c-0.042,0.504-0.129,0.997-0.129,1.513v1.021v0.216
		l-48.957-48.951L85.104,22.875c-4.741-3-11.112-2.495-15.336,1.726c-4.888,4.903-4.993,12.706-0.243,17.465l4.236,4.23
		L88.806,61.33l62.72,62.727l27.454,27.466v128.722V304.9v10.004v118.078c0,20.32,10.698,35.632,24.902,35.632h61.468
		c14.189,0,24.891-15.312,24.891-35.632v-109.06v-19.029v-24.655V150.907l26.835-26.851l62.727-62.727l15.048-15.033l4.233-4.23
		C403.838,37.308,403.736,29.504,398.854,24.602z"/>
</g>
</svg>