<?xml version="1.0" encoding="iso-8859-1"?>
<!-- Uploaded to: SVG Repo, www.svgrepo.com, Generator: SVG Repo Mixer Tools -->
<svg fill="#000000" height="800px" width="800px" version="1.1" id="Layer_1" xmlns="http://www.w3.org/2000/svg" xmlns:xlink="http://www.w3.org/1999/xlink" 
	 viewBox="0 0 512 512" xml:space="preserve">
<g>
	<g>
		<path d="M384,0c-42.351,0-76.8,34.449-76.8,76.8c0,42.351,34.449,76.8,76.8,76.8s76.8-34.449,76.8-76.8
			C460.8,34.449,426.351,0,384,0z M384,128c-28.271,0-51.2-22.921-51.2-51.2s22.929-51.2,51.2-51.2c28.279,0,51.2,22.921,51.2,51.2
			S412.279,128,384,128z"/>
	</g>
</g>
<g>
	<g>
		<path d="M486.4,325.12h-3.302L460.39,200.226c-2.219-12.177-12.817-21.026-25.19-21.026H332.8
			c-12.365,0-22.972,8.849-25.19,21.026l-25.6,140.8c-1.357,7.467,0.666,15.155,5.53,20.983c4.873,5.82,12.066,9.19,19.661,9.19
			h16.358l9.327,117.231C333.943,501.734,345.054,512,358.4,512h51.2c13.355,0,24.465-10.266,25.515-23.569l4.241-53.231H486.4
			c14.14,0,25.6-11.46,25.6-25.6v-58.88C512,336.58,500.54,325.12,486.4,325.12z M409.6,486.4h-51.2l-11.204-140.8H307.2l25.6-140.8
			h38.4v77.875c0,7.074,5.726,12.8,12.8,12.8c7.074,0,12.8-5.726,12.8-12.8V204.8h38.4l21.871,120.32H404.48
			c-14.14,0-25.6,11.46-25.6,25.6v58.88c0,14.14,11.46,25.6,25.6,25.6h9.19L409.6,486.4z M486.4,409.6h-81.92v-58.88h81.92V409.6z"
			/>
	</g>
</g>
<g>
	<g>
		<path d="M268.8,104.021V51.2c0-7.074-5.726-12.8-12.8-12.8h-64c-7.074,0-12.8,5.726-12.8,12.8c0,14.123-11.477,25.6-25.6,25.6
			c-14.123,0-25.6-11.477-25.6-25.6c0-7.074-5.726-12.8-12.8-12.8h-64c-7.074,0-12.8,5.726-12.8,12.8v52.821
			C16.35,109.722,0,129.775,0,153.6c0,23.825,16.35,43.878,38.4,49.579V320c0,7.074,5.726,12.8,12.8,12.8
			c14.123,0,25.6,11.477,25.6,25.6S65.323,384,51.2,384c-7.074,0-12.8,5.726-12.8,12.8v64c0,7.074,5.726,12.8,12.8,12.8h52.821
			c5.7,22.05,25.754,38.4,49.579,38.4c23.825,0,43.878-16.35,49.579-38.4H256c7.074,0,12.8-5.726,12.8-12.8v-64
			c0-7.074-5.726-12.8-12.8-12.8c-14.123,0-25.6-11.477-25.6-25.6s11.477-25.6,25.6-25.6c7.074,0,12.8-5.726,12.8-12.8V203.179
			c22.05-5.7,38.4-25.754,38.4-49.579C307.2,129.775,290.85,109.722,268.8,104.021z M243.2,308.821
			c-22.05,5.7-38.4,25.754-38.4,49.579s16.35,43.878,38.4,49.579V448H192c-7.074,0-12.8,5.726-12.8,12.8
			c0,14.123-11.477,25.6-25.6,25.6c-14.123,0-25.6-11.477-25.6-25.6c0-7.074-5.726-12.8-12.8-12.8H64v-40.021
			c22.05-5.7,38.4-25.754,38.4-49.579S86.05,314.522,64,308.821V268.8h51.2c7.074,0,12.8-5.726,12.8-12.8
			c0-14.123,11.477-25.6,25.6-25.6c14.123,0,25.6,11.477,25.6,25.6c0,7.074,5.726,12.8,12.8,12.8h51.2V308.821z M256,179.2
			c-7.074,0-12.8,5.726-12.8,12.8v51.2h-40.021c-5.7-22.05-25.754-38.4-49.579-38.4c-23.825,0-43.878,16.35-49.579,38.4H64V192
			c0-7.074-5.726-12.8-12.8-12.8c-14.123,0-25.6-11.477-25.6-25.6c0-14.123,11.477-25.6,25.6-25.6c7.074,0,12.8-5.726,12.8-12.8V64
			h40.021c5.7,22.05,25.754,38.4,49.579,38.4c23.825,0,43.878-16.35,49.579-38.4H243.2v51.2c0,7.074,5.726,12.8,12.8,12.8
			c14.123,0,25.6,11.477,25.6,25.6C281.6,167.723,270.123,179.2,256,179.2z"/>
	</g>
</g>
</svg>